# xmcd
#
# Track frame offsets: 
#        150
#        8488
#        22714
#        39887
#        57417
#        73635
#        89960
#        103841
#        122455
#        135998
#        152067
#        165921
#        180730
#
# Disc length: 2574 seconds
#
# Revision: 0
# Processed by: cddbd v1.5.2PL0 Copyright (c) Steve Scherf et al.
# Submitted via: ExactAudioCopy v1.0b3
#
DISCID=970a0c0d
DTITLE=Sonny Lowe - 100 Proof
DYEAR=2006
DGENRE=Blues
TTITLE0=Humdinger
TTITLE1=If You Love Me Like You Say
TTITLE2=Hey Miss Bessy
TTITLE3=Can't Be Satisfied
TTITLE4=Watch Yourself
TTITLE5=Asking Too Much
TTITLE6=Red Is Making Me Blue
TTITLE7=Who's Been Talking
TTITLE8=The Seventh Sun
TTITLE9=Same Old Blues
TTITLE10=Snatch It Back
TTITLE11=Bad, Bad Whiskey
TTITLE12=29 Ways
EXTD=
EXTT0=
EXTT1=
EXTT2=
EXTT3=
EXTT4=
EXTT5=
EXTT6=
EXTT7=
EXTT8=
EXTT9=
EXTT10=
EXTT11=
EXTT12=
PLAYORDER=
